<mxfile host="app.diagrams.net" modified="2023-06-12T05:51:17.923Z" agent="Mozilla/5.0 (Windows NT 10.0; Win64; x64) AppleWebKit/537.36 (KHTML, like Gecko) Chrome/114.0.0.0 Safari/537.36 Edg/114.0.1823.43" etag="huLncH9JNknjeeuXn_AT" version="21.3.8" type="github">
  <diagram id="prtHgNgQTEPvFCAcTncT" name="Page-1">
    <mxGraphModel dx="2036" dy="1175" grid="1" gridSize="10" guides="1" tooltips="1" connect="1" arrows="1" fold="1" page="1" pageScale="1" pageWidth="827" pageHeight="1169" math="0" shadow="0">
      <root>
        <mxCell id="0" />
        <mxCell id="1" parent="0" />
        <mxCell id="dNxyNK7c78bLwvsdeMH5-11" value="Orgchart" style="swimlane;html=1;startSize=20;horizontal=1;containerType=tree;glass=0;" parent="1" vertex="1">
          <mxGeometry x="40" y="80" width="710" height="290" as="geometry" />
        </mxCell>
        <UserObject label="%name%&lt;br&gt;&lt;i style=&quot;color: gray&quot;&gt;%position%&lt;/i&gt;&lt;br&gt;&lt;a href=&quot;mailto:%email%&quot;&gt;Email&lt;/a&gt;" name="Tessa Miller" position="CFO" location="Office 1" email="me@example.com" placeholders="1" link="https://www.draw.io" id="dNxyNK7c78bLwvsdeMH5-12">
          <mxCell style="label;image=https://cdn3.iconfinder.com/data/icons/user-avatars-1/512/users-3-128.png;whiteSpace=wrap;html=1;rounded=0;glass=0;treeMoving=1;treeFolding=1;" parent="dNxyNK7c78bLwvsdeMH5-11" vertex="1">
            <mxGeometry x="260" y="50" width="180" height="70" as="geometry" />
          </mxCell>
        </UserObject>
        <mxCell id="dNxyNK7c78bLwvsdeMH5-13" value="" style="endArrow=blockThin;endFill=1;fontSize=11;edgeStyle=elbowEdgeStyle;elbow=vertical;rounded=0;" parent="dNxyNK7c78bLwvsdeMH5-11" source="dNxyNK7c78bLwvsdeMH5-12" target="dNxyNK7c78bLwvsdeMH5-14" edge="1">
          <mxGeometry relative="1" as="geometry" />
        </mxCell>
        <UserObject label="%name%&lt;br&gt;&lt;i style=&quot;color: gray&quot;&gt;%position%&lt;/i&gt;&lt;br&gt;&lt;a href=&quot;mailto:%email%&quot;&gt;Email&lt;/a&gt;" name="Edward Morrison" position="Brand Manager" location="Office 2" email="me@example.com" placeholders="1" link="https://www.draw.io" id="dNxyNK7c78bLwvsdeMH5-14">
          <mxCell style="label;image=https://cdn3.iconfinder.com/data/icons/user-avatars-1/512/users-10-3-128.png;whiteSpace=wrap;html=1;rounded=0;glass=0;treeFolding=1;treeMoving=1;" parent="dNxyNK7c78bLwvsdeMH5-11" vertex="1">
            <mxGeometry x="40" y="180" width="180" height="80" as="geometry" />
          </mxCell>
        </UserObject>
        <mxCell id="dNxyNK7c78bLwvsdeMH5-15" value="" style="endArrow=blockThin;endFill=1;fontSize=11;edgeStyle=elbowEdgeStyle;elbow=vertical;rounded=0;" parent="dNxyNK7c78bLwvsdeMH5-11" source="dNxyNK7c78bLwvsdeMH5-12" target="dNxyNK7c78bLwvsdeMH5-16" edge="1">
          <mxGeometry relative="1" as="geometry" />
        </mxCell>
        <UserObject label="%name%&lt;br&gt;&lt;i style=&quot;color: gray&quot;&gt;%position%&lt;/i&gt;&lt;br&gt;&lt;a href=&quot;mailto:%email%&quot;&gt;Email&lt;/a&gt;" name="Evan Valet" position="HR Director" location="Office 4" email="me@example.com" placeholders="1" link="https://www.draw.io" id="dNxyNK7c78bLwvsdeMH5-16">
          <mxCell style="label;image=https://cdn3.iconfinder.com/data/icons/user-avatars-1/512/users-9-2-128.png;whiteSpace=wrap;html=1;rounded=0;glass=0;treeFolding=1;treeMoving=1;" parent="dNxyNK7c78bLwvsdeMH5-11" vertex="1">
            <mxGeometry x="260" y="180" width="180" height="80" as="geometry" />
          </mxCell>
        </UserObject>
        <mxCell id="dNxyNK7c78bLwvsdeMH5-17" value="" style="endArrow=blockThin;endFill=1;fontSize=11;edgeStyle=elbowEdgeStyle;elbow=vertical;rounded=0;" parent="dNxyNK7c78bLwvsdeMH5-11" source="dNxyNK7c78bLwvsdeMH5-12" target="dNxyNK7c78bLwvsdeMH5-18" edge="1">
          <mxGeometry relative="1" as="geometry" />
        </mxCell>
        <UserObject label="%name%&lt;br&gt;&lt;i style=&quot;color: gray&quot;&gt;%position%&lt;/i&gt;&lt;br&gt;&lt;a href=&quot;mailto:%email%&quot;&gt;Email&lt;/a&gt;" name="Alison Donovan" position="System Admin" location="Office 3" email="me@example.com" placeholders="1" link="https://www.draw.io" id="dNxyNK7c78bLwvsdeMH5-18">
          <mxCell style="label;image=https://cdn3.iconfinder.com/data/icons/user-avatars-1/512/users-2-128.png;whiteSpace=wrap;html=1;rounded=0;glass=0;" parent="dNxyNK7c78bLwvsdeMH5-11" vertex="1">
            <mxGeometry x="490" y="180" width="180" height="80" as="geometry" />
          </mxCell>
        </UserObject>
        <mxCell id="_UXNxuILy88-4kY8JOHj-1" value="&lt;ol&gt;&lt;li&gt;Value 1&lt;/li&gt;&lt;li&gt;Value 2&lt;/li&gt;&lt;li&gt;Value 3&lt;/li&gt;&lt;/ol&gt;" style="text;strokeColor=none;fillColor=none;html=1;whiteSpace=wrap;verticalAlign=middle;overflow=hidden;fontSize=16;" vertex="1" parent="1">
          <mxGeometry x="560" y="350" width="100" height="80" as="geometry" />
        </mxCell>
        <mxCell id="_UXNxuILy88-4kY8JOHj-2" value="Assets" style="childLayout=tableLayout;recursiveResize=0;strokeColor=#98bf21;fillColor=#A7C942;shadow=1;fontSize=16;" vertex="1" parent="1">
          <mxGeometry x="470" y="310" width="280" height="160" as="geometry" />
        </mxCell>
        <mxCell id="_UXNxuILy88-4kY8JOHj-3" style="shape=tableRow;horizontal=0;startSize=0;swimlaneHead=0;swimlaneBody=0;top=0;left=0;bottom=0;right=0;dropTarget=0;collapsible=0;recursiveResize=0;expand=0;fontStyle=0;strokeColor=inherit;fillColor=#ffffff;fontSize=16;" vertex="1" parent="_UXNxuILy88-4kY8JOHj-2">
          <mxGeometry width="280" height="33" as="geometry" />
        </mxCell>
        <mxCell id="_UXNxuILy88-4kY8JOHj-4" value="Title 1" style="connectable=0;recursiveResize=0;strokeColor=inherit;fillColor=#A7C942;align=center;fontStyle=1;fontColor=#FFFFFF;html=1;fontSize=16;" vertex="1" parent="_UXNxuILy88-4kY8JOHj-3">
          <mxGeometry width="93" height="33" as="geometry">
            <mxRectangle width="93" height="33" as="alternateBounds" />
          </mxGeometry>
        </mxCell>
        <mxCell id="_UXNxuILy88-4kY8JOHj-5" value="Title 2" style="connectable=0;recursiveResize=0;strokeColor=inherit;fillColor=#A7C942;align=center;fontStyle=1;fontColor=#FFFFFF;html=1;fontSize=16;" vertex="1" parent="_UXNxuILy88-4kY8JOHj-3">
          <mxGeometry x="93" width="94" height="33" as="geometry">
            <mxRectangle width="94" height="33" as="alternateBounds" />
          </mxGeometry>
        </mxCell>
        <mxCell id="_UXNxuILy88-4kY8JOHj-6" value="Title 3" style="connectable=0;recursiveResize=0;strokeColor=inherit;fillColor=#A7C942;align=center;fontStyle=1;fontColor=#FFFFFF;html=1;fontSize=16;" vertex="1" parent="_UXNxuILy88-4kY8JOHj-3">
          <mxGeometry x="187" width="93" height="33" as="geometry">
            <mxRectangle width="93" height="33" as="alternateBounds" />
          </mxGeometry>
        </mxCell>
        <mxCell id="_UXNxuILy88-4kY8JOHj-7" value="" style="shape=tableRow;horizontal=0;startSize=0;swimlaneHead=0;swimlaneBody=0;top=0;left=0;bottom=0;right=0;dropTarget=0;collapsible=0;recursiveResize=0;expand=0;fontStyle=0;strokeColor=inherit;fillColor=#ffffff;fontSize=16;" vertex="1" parent="_UXNxuILy88-4kY8JOHj-2">
          <mxGeometry y="33" width="280" height="32" as="geometry" />
        </mxCell>
        <mxCell id="_UXNxuILy88-4kY8JOHj-8" value="Value 1" style="connectable=0;recursiveResize=0;strokeColor=inherit;fillColor=inherit;align=center;whiteSpace=wrap;html=1;fontSize=16;" vertex="1" parent="_UXNxuILy88-4kY8JOHj-7">
          <mxGeometry width="93" height="32" as="geometry">
            <mxRectangle width="93" height="32" as="alternateBounds" />
          </mxGeometry>
        </mxCell>
        <mxCell id="_UXNxuILy88-4kY8JOHj-9" value="Value 2" style="connectable=0;recursiveResize=0;strokeColor=inherit;fillColor=inherit;align=center;whiteSpace=wrap;html=1;fontSize=16;" vertex="1" parent="_UXNxuILy88-4kY8JOHj-7">
          <mxGeometry x="93" width="94" height="32" as="geometry">
            <mxRectangle width="94" height="32" as="alternateBounds" />
          </mxGeometry>
        </mxCell>
        <mxCell id="_UXNxuILy88-4kY8JOHj-10" value="Value 3" style="connectable=0;recursiveResize=0;strokeColor=inherit;fillColor=inherit;align=center;whiteSpace=wrap;html=1;fontSize=16;" vertex="1" parent="_UXNxuILy88-4kY8JOHj-7">
          <mxGeometry x="187" width="93" height="32" as="geometry">
            <mxRectangle width="93" height="32" as="alternateBounds" />
          </mxGeometry>
        </mxCell>
        <mxCell id="_UXNxuILy88-4kY8JOHj-11" value="" style="shape=tableRow;horizontal=0;startSize=0;swimlaneHead=0;swimlaneBody=0;top=0;left=0;bottom=0;right=0;dropTarget=0;collapsible=0;recursiveResize=0;expand=0;fontStyle=1;strokeColor=inherit;fillColor=#EAF2D3;fontSize=16;" vertex="1" parent="_UXNxuILy88-4kY8JOHj-2">
          <mxGeometry y="65" width="280" height="31" as="geometry" />
        </mxCell>
        <mxCell id="_UXNxuILy88-4kY8JOHj-12" value="Value 4" style="connectable=0;recursiveResize=0;strokeColor=inherit;fillColor=inherit;whiteSpace=wrap;html=1;fontSize=16;" vertex="1" parent="_UXNxuILy88-4kY8JOHj-11">
          <mxGeometry width="93" height="31" as="geometry">
            <mxRectangle width="93" height="31" as="alternateBounds" />
          </mxGeometry>
        </mxCell>
        <mxCell id="_UXNxuILy88-4kY8JOHj-13" value="Value 5" style="connectable=0;recursiveResize=0;strokeColor=inherit;fillColor=inherit;whiteSpace=wrap;html=1;fontSize=16;" vertex="1" parent="_UXNxuILy88-4kY8JOHj-11">
          <mxGeometry x="93" width="94" height="31" as="geometry">
            <mxRectangle width="94" height="31" as="alternateBounds" />
          </mxGeometry>
        </mxCell>
        <mxCell id="_UXNxuILy88-4kY8JOHj-14" value="Value 6" style="connectable=0;recursiveResize=0;strokeColor=inherit;fillColor=inherit;whiteSpace=wrap;html=1;fontSize=16;" vertex="1" parent="_UXNxuILy88-4kY8JOHj-11">
          <mxGeometry x="187" width="93" height="31" as="geometry">
            <mxRectangle width="93" height="31" as="alternateBounds" />
          </mxGeometry>
        </mxCell>
        <mxCell id="_UXNxuILy88-4kY8JOHj-15" value="" style="shape=tableRow;horizontal=0;startSize=0;swimlaneHead=0;swimlaneBody=0;top=0;left=0;bottom=0;right=0;dropTarget=0;collapsible=0;recursiveResize=0;expand=0;fontStyle=0;strokeColor=inherit;fillColor=#ffffff;fontSize=16;" vertex="1" parent="_UXNxuILy88-4kY8JOHj-2">
          <mxGeometry y="96" width="280" height="33" as="geometry" />
        </mxCell>
        <mxCell id="_UXNxuILy88-4kY8JOHj-16" value="Value 7" style="connectable=0;recursiveResize=0;strokeColor=inherit;fillColor=inherit;fontStyle=0;align=center;whiteSpace=wrap;html=1;fontSize=16;" vertex="1" parent="_UXNxuILy88-4kY8JOHj-15">
          <mxGeometry width="93" height="33" as="geometry">
            <mxRectangle width="93" height="33" as="alternateBounds" />
          </mxGeometry>
        </mxCell>
        <mxCell id="_UXNxuILy88-4kY8JOHj-17" value="Value 8" style="connectable=0;recursiveResize=0;strokeColor=inherit;fillColor=inherit;fontStyle=0;align=center;whiteSpace=wrap;html=1;fontSize=16;" vertex="1" parent="_UXNxuILy88-4kY8JOHj-15">
          <mxGeometry x="93" width="94" height="33" as="geometry">
            <mxRectangle width="94" height="33" as="alternateBounds" />
          </mxGeometry>
        </mxCell>
        <mxCell id="_UXNxuILy88-4kY8JOHj-18" value="Value 9" style="connectable=0;recursiveResize=0;strokeColor=inherit;fillColor=inherit;fontStyle=0;align=center;whiteSpace=wrap;html=1;fontSize=16;" vertex="1" parent="_UXNxuILy88-4kY8JOHj-15">
          <mxGeometry x="187" width="93" height="33" as="geometry">
            <mxRectangle width="93" height="33" as="alternateBounds" />
          </mxGeometry>
        </mxCell>
        <mxCell id="_UXNxuILy88-4kY8JOHj-19" value="" style="shape=tableRow;horizontal=0;startSize=0;swimlaneHead=0;swimlaneBody=0;top=0;left=0;bottom=0;right=0;dropTarget=0;collapsible=0;recursiveResize=0;expand=0;fontStyle=1;strokeColor=inherit;fillColor=#EAF2D3;fontSize=16;" vertex="1" parent="_UXNxuILy88-4kY8JOHj-2">
          <mxGeometry y="129" width="280" height="31" as="geometry" />
        </mxCell>
        <mxCell id="_UXNxuILy88-4kY8JOHj-20" value="Value 10" style="connectable=0;recursiveResize=0;strokeColor=inherit;fillColor=inherit;whiteSpace=wrap;html=1;fontSize=16;" vertex="1" parent="_UXNxuILy88-4kY8JOHj-19">
          <mxGeometry width="93" height="31" as="geometry">
            <mxRectangle width="93" height="31" as="alternateBounds" />
          </mxGeometry>
        </mxCell>
        <mxCell id="_UXNxuILy88-4kY8JOHj-21" value="Value 11" style="connectable=0;recursiveResize=0;strokeColor=inherit;fillColor=inherit;whiteSpace=wrap;html=1;fontSize=16;" vertex="1" parent="_UXNxuILy88-4kY8JOHj-19">
          <mxGeometry x="93" width="94" height="31" as="geometry">
            <mxRectangle width="94" height="31" as="alternateBounds" />
          </mxGeometry>
        </mxCell>
        <mxCell id="_UXNxuILy88-4kY8JOHj-22" value="Value 12" style="connectable=0;recursiveResize=0;strokeColor=inherit;fillColor=inherit;whiteSpace=wrap;html=1;fontSize=16;" vertex="1" parent="_UXNxuILy88-4kY8JOHj-19">
          <mxGeometry x="187" width="93" height="31" as="geometry">
            <mxRectangle width="93" height="31" as="alternateBounds" />
          </mxGeometry>
        </mxCell>
        <mxCell id="_UXNxuILy88-4kY8JOHj-23" value="" style="childLayout=tableLayout;recursiveResize=0;shadow=0;fillColor=none;strokeColor=#C0C0C0;fontSize=16;" vertex="1" parent="1">
          <mxGeometry x="520" y="320" width="180" height="140" as="geometry" />
        </mxCell>
        <mxCell id="_UXNxuILy88-4kY8JOHj-24" value="" style="shape=tableRow;horizontal=0;startSize=0;swimlaneHead=0;swimlaneBody=0;top=0;left=0;bottom=0;right=0;dropTarget=0;collapsible=0;recursiveResize=0;expand=0;fontStyle=0;fillColor=none;fontSize=16;" vertex="1" parent="_UXNxuILy88-4kY8JOHj-23">
          <mxGeometry width="180" height="47" as="geometry" />
        </mxCell>
        <mxCell id="_UXNxuILy88-4kY8JOHj-25" value="Value 1" style="connectable=0;recursiveResize=0;strokeColor=none;fillColor=none;align=center;whiteSpace=wrap;html=1;fontSize=16;" vertex="1" parent="_UXNxuILy88-4kY8JOHj-24">
          <mxGeometry width="60" height="47" as="geometry">
            <mxRectangle width="60" height="47" as="alternateBounds" />
          </mxGeometry>
        </mxCell>
        <mxCell id="_UXNxuILy88-4kY8JOHj-26" value="Value 2" style="connectable=0;recursiveResize=0;strokeColor=none;fillColor=none;align=center;whiteSpace=wrap;html=1;fontSize=16;" vertex="1" parent="_UXNxuILy88-4kY8JOHj-24">
          <mxGeometry x="60" width="60" height="47" as="geometry">
            <mxRectangle width="60" height="47" as="alternateBounds" />
          </mxGeometry>
        </mxCell>
        <mxCell id="_UXNxuILy88-4kY8JOHj-27" value="Value 3" style="connectable=0;recursiveResize=0;strokeColor=none;fillColor=none;align=center;whiteSpace=wrap;html=1;fontSize=16;" vertex="1" parent="_UXNxuILy88-4kY8JOHj-24">
          <mxGeometry x="120" width="60" height="47" as="geometry">
            <mxRectangle width="60" height="47" as="alternateBounds" />
          </mxGeometry>
        </mxCell>
        <mxCell id="_UXNxuILy88-4kY8JOHj-28" style="shape=tableRow;horizontal=0;startSize=0;swimlaneHead=0;swimlaneBody=0;top=0;left=0;bottom=0;right=0;dropTarget=0;collapsible=0;recursiveResize=0;expand=0;fontStyle=0;fillColor=none;fontSize=16;" vertex="1" parent="_UXNxuILy88-4kY8JOHj-23">
          <mxGeometry y="47" width="180" height="46" as="geometry" />
        </mxCell>
        <mxCell id="_UXNxuILy88-4kY8JOHj-29" value="Value 4" style="connectable=0;recursiveResize=0;strokeColor=none;fillColor=none;align=center;whiteSpace=wrap;html=1;fontSize=16;" vertex="1" parent="_UXNxuILy88-4kY8JOHj-28">
          <mxGeometry width="60" height="46" as="geometry">
            <mxRectangle width="60" height="46" as="alternateBounds" />
          </mxGeometry>
        </mxCell>
        <mxCell id="_UXNxuILy88-4kY8JOHj-30" value="Value 5" style="connectable=0;recursiveResize=0;strokeColor=none;fillColor=none;align=center;whiteSpace=wrap;html=1;fontSize=16;" vertex="1" parent="_UXNxuILy88-4kY8JOHj-28">
          <mxGeometry x="60" width="60" height="46" as="geometry">
            <mxRectangle width="60" height="46" as="alternateBounds" />
          </mxGeometry>
        </mxCell>
        <mxCell id="_UXNxuILy88-4kY8JOHj-31" value="Value 6" style="connectable=0;recursiveResize=0;strokeColor=none;fillColor=none;align=center;whiteSpace=wrap;html=1;fontSize=16;" vertex="1" parent="_UXNxuILy88-4kY8JOHj-28">
          <mxGeometry x="120" width="60" height="46" as="geometry">
            <mxRectangle width="60" height="46" as="alternateBounds" />
          </mxGeometry>
        </mxCell>
        <mxCell id="_UXNxuILy88-4kY8JOHj-32" style="shape=tableRow;horizontal=0;startSize=0;swimlaneHead=0;swimlaneBody=0;top=0;left=0;bottom=0;right=0;dropTarget=0;collapsible=0;recursiveResize=0;expand=0;fontStyle=0;fillColor=none;fontSize=16;" vertex="1" parent="_UXNxuILy88-4kY8JOHj-23">
          <mxGeometry y="93" width="180" height="47" as="geometry" />
        </mxCell>
        <mxCell id="_UXNxuILy88-4kY8JOHj-33" value="Value 7" style="connectable=0;recursiveResize=0;strokeColor=none;fillColor=none;align=center;whiteSpace=wrap;html=1;fontSize=16;" vertex="1" parent="_UXNxuILy88-4kY8JOHj-32">
          <mxGeometry width="60" height="47" as="geometry">
            <mxRectangle width="60" height="47" as="alternateBounds" />
          </mxGeometry>
        </mxCell>
        <mxCell id="_UXNxuILy88-4kY8JOHj-34" value="Value 8" style="connectable=0;recursiveResize=0;strokeColor=none;fillColor=none;align=center;whiteSpace=wrap;html=1;fontSize=16;" vertex="1" parent="_UXNxuILy88-4kY8JOHj-32">
          <mxGeometry x="60" width="60" height="47" as="geometry">
            <mxRectangle width="60" height="47" as="alternateBounds" />
          </mxGeometry>
        </mxCell>
        <mxCell id="_UXNxuILy88-4kY8JOHj-35" value="Value 9" style="connectable=0;recursiveResize=0;strokeColor=none;fillColor=none;align=center;whiteSpace=wrap;html=1;fontSize=16;" vertex="1" parent="_UXNxuILy88-4kY8JOHj-32">
          <mxGeometry x="120" width="60" height="47" as="geometry">
            <mxRectangle width="60" height="47" as="alternateBounds" />
          </mxGeometry>
        </mxCell>
        <mxCell id="_UXNxuILy88-4kY8JOHj-36" value="" style="rounded=1;whiteSpace=wrap;html=1;strokeWidth=2;fillWeight=4;hachureGap=8;hachureAngle=45;fillColor=#1ba1e2;sketch=1;fontSize=16;" vertex="1" parent="1">
          <mxGeometry x="550" y="360" width="120" height="60" as="geometry" />
        </mxCell>
        <mxCell id="_UXNxuILy88-4kY8JOHj-37" value="" style="shape=ext;double=1;rounded=0;whiteSpace=wrap;html=1;fontSize=16;" vertex="1" parent="1">
          <mxGeometry x="550" y="350" width="120" height="80" as="geometry" />
        </mxCell>
        <mxCell id="_UXNxuILy88-4kY8JOHj-38" value="&lt;table border=&quot;1&quot; width=&quot;100%&quot; height=&quot;100%&quot; cellpadding=&quot;4&quot; style=&quot;width:100%;height:100%;border-collapse:collapse;&quot;&gt;&lt;tr&gt;&lt;th align=&quot;center&quot;&gt;&lt;b&gt;Title&lt;/b&gt;&lt;/th&gt;&lt;/tr&gt;&lt;tr&gt;&lt;td align=&quot;center&quot;&gt;Section 1.1&#xa;Section 1.2&#xa;Section 1.3&lt;/td&gt;&lt;/tr&gt;&lt;tr&gt;&lt;td align=&quot;center&quot;&gt;Section 2.1&#xa;Section 2.2&#xa;Section 2.3&lt;/td&gt;&lt;/tr&gt;&lt;/table&gt;" style="text;html=1;whiteSpace=wrap;strokeColor=none;fillColor=none;overflow=fill;fontSize=16;" vertex="1" parent="1">
          <mxGeometry x="520" y="300" width="180" height="180" as="geometry" />
        </mxCell>
        <UserObject label="Link" link="https://www.draw.io" id="_UXNxuILy88-4kY8JOHj-39">
          <mxCell style="text;html=1;strokeColor=none;fillColor=none;whiteSpace=wrap;align=center;verticalAlign=middle;fontColor=#0000EE;fontStyle=4;fontSize=16;" vertex="1" parent="1">
            <mxGeometry x="580" y="370" width="60" height="40" as="geometry" />
          </mxCell>
        </UserObject>
        <mxCell id="_UXNxuILy88-4kY8JOHj-40" value="" style="shape=stencil(7VnLbhsxDPwaXwmJep/T9D8CxGmMpnGQpK+/L1VjNxa5OwvfWsC3jcNZkdRwSGl34ebt8e5lv2P39v56/Lr/ebh/f9yFTzvmw/Pj/vXwLk+7cLsLNw/H1/2X1+P35/vT3y933bI/fTv+6G/4dcI58q6D2P0+/dAqRf77y+eT/dPh+cw+UPGDfa1Ugb0PFOMAKEwlrwOYKeYBkD35BDySFdIAiJVyWQfERHmMISRqYR2QKoUR8JGGRUBxlMIAkDQkAKhMrgyARL6t2zdPXAd7RwXZFx2yI+eAfaPMY8SUsH1x2h7E2+2btgdbJvY1K/tcoX3T/iOWdvsx/wHmx7s5fx8AvhQQcUZbVfZ5wz4pe8gIyWhT9g1UWbcfMxonyq7ucFT2HpR9Z1zW9sj/Sm6Mt1JC758LcC7JOBXpckmWifEzhRwUruoojhziMonrskoIx0aVECkLAJATFQXAYp0auXGTI5OPABApjKyLQguwDckbWsyvWAY4zeu+AnLJUbUApNayTQZQwcZ1gNOAAmpBADloQMJBJ+NSQGkVQNIAD8qtA1S58VZaU9YA1NN60E4DUE/oALNCwCtoyeCtoGvQALdBPjYAxCUmHl0KbaLjMmAm81mJQi7JMGIAjDauTBpxBvAorVWXaF8BkC9Lq8oaUIFLAvBVA1AzEYAaXyStaMYTQEgaEEHQHWBWKEhbBaDYKmnYWMFrAANq9KBZA1ABZTObCyAjLpkpJjoYtABqvHAF1YF6DIh8TdO7ZwkpXzNSifehA9To1rCQNS1kG1xKZjTZYGvPkikgVA+p6R63XXHOGwCYBDqXjMw0TD42FYcGvl4PQQOQ3HeA2Tg04i4C2sYKhq1oSrdBCyBuKJ8tIOySMyKQcT2oOb0DUAe6GFD1WaxXHGJrWdhpxCXpcbqxb6wwnxXOZQYB2KiGx0LmF+YldAK9zq3XufU/mlu94RLjSSAS26BBQxHV0C6JVKKpMlFSY2imio7HrGMIHsYgB3BW13TzmmtHfB6p4dv0irVLBKVLPkAha0UHXeDp+Hrvdr13+8fv3YTRo/8eXrY3T3HUuvl+f+0mnMf3Z8igYrqmT+TxZb4KQFQC3brFpDkdCiyyELRLaZ4rFwG9SMYcZazWojqKREX0GwQd9Vm1SVmALitJHUPuNAF1P58az+wr8Mc08V5G0B91tXpW1yuAcCmAi/EI7Jm58mgNntjcdEdznlFQZ05fb4s96gTmQCj26JxtZFHsHahL+/66scPa/woPRpd+h9y2l4ePj54Ph6en0zfT8//rj6Ty0+kDa7j9Aw==);lineShape=1;fontSize=16;" vertex="1" parent="1">
          <mxGeometry x="60.63383138829431" y="422.36190968935284" width="343.31945649770614" height="147.71351795585156" as="geometry" />
        </mxCell>
        <mxCell id="_UXNxuILy88-4kY8JOHj-41" value="" style="shape=stencil(lZjJbhsxDIafxldCErWe0/Q9AsRpjKZx4Ljb25eqK3dEjv9Bbl7mG4n7suO79+eHt/0uuPfz6fh1//PweH7e8addCIfX5/3pcJZPO77f8d3T8bT/cjp+f328fH976E/2T9+OP/obfl24wFRbp4L7ffmlOorh7y+fL8DL4XUJVHJBA77eBtgT1wkojWoEQCKfNcAIaOTLDFQq7jYQmcIsdCmUgAyxUFAyJIrgSslR8DPgqRYAeMpuAnKmliHw7wJXwFFpQIZGLk1AYqjWGKnMdpBfKjiBK7VZS2LK4gEQiGfDhUwZAEG0PgO+Du9aBeTvOsvgPSVgBx+ozYbLw5KrzxcqSgLsSNoGjmoCt6EyK1S8BFze6ccTBeBCjlrRuqkMb8Pz8xLIQDdRhyU7cuD9VUdl9NRAKvLmgBSJgYOKBHFWkAQZ0n9olFUqKlshkOYr1Yx1VIZFB9DEA0HuSmW87wqUobdVIMvfs881yZfgBEltbc7wrcIrVakhQV8JBVnzOlG0OOJ0HWgUlQweZngBUtUACh0BijcAUKsAlc2VgC8JoNXqt4TWWhK9gSt5J/E1FxFxJg8ibuWIMCrdTcBrIAL/bs24q2RIDORmAGy5lA2AZYhsAGw5DkZofKUQNcDY1N4IHUDqWwXcxpWM9zXsGuw0gDJZV6uJoIJlSCaCNmJUZeMOYEuXZq6Eha4GqFgGVUO7WkFTtR6jDieaZn1jI6it92G91qSBuKFXc8JGBH0QCLp/bmm84lYNakqGCmO0VznlfbibkTrq5ystbHmrVCdTSD2QOtpSzdDB2Q5jhSLqgNrowBajElJTcDqERA+MWlbWc4k0ZSiEis4CMQwtrMusx0npKgNsilXZla4VdTNumGjZFYP7mHiOo6beaKJVLfGwJ446bWOXqzpscM7uxppfnyiB13uT472D/bBMT07NGAV2Sczk5hP6K4CCZPjPs736/gCNYGaGlLEWzfIyOKv2VgZndKUUxti1HM2B0AKwCTKU4pMbG5RrGOOOpI8ZapDJMGoijzyyTBRo8mlmpyKWwWueoEYlBwcZluktawBllr6qUid46BrBFJF6PfMWoOzQATRQsp6hO4A2HlIADIC2NgIkIwPaAnTAGS1hGbQdcA5bARxMwR2oGijYcKqICIBayQ6YtSeaMsK1EC/3pCjzsV7GdAAb7oOb2G1APvxf/D4dXl4ue+Pl/3pRLD9dlsx8/wc=);lineShape=1;fontSize=16;" vertex="1" parent="1">
          <mxGeometry x="306.4260437725952" y="341.48065874583153" width="305.8554828504607" height="273.2296220162659" as="geometry" />
        </mxCell>
        <mxCell id="_UXNxuILy88-4kY8JOHj-42" value="" style="shape=stencil(nVnLbhsxDPwaXwk9Semctv8RIEljNI0DJ339fakaciJqNQv05jiaXVIckkP6EG9eH29f7g/Bvb6dT9/ufx3v3h4P8dMhhOPz4/35+KafDvHzId48nM73X8+nH893l79fbtvJ9un76Wd7wu8LrlbKpaGC+3P9Rty/b75cAE/H5xEQ/Qgo5AQCXBoBTCkCQCExb0hUGAKCjIBIOQGAUOYR4LHTTH70odT+iG1ApDT6UIQCcFqfl+oISCQVABJxHgGBUlgDRKgakxz5vAbwRA0p5D0AOHJuBDBF4EOqxGPgBEc6KvnGwEkkLmtAqFQNIMBrDZ5ytgAHAucjVXNLngLwQck6BlocJZA/qT+tn+crVbYN6ky+ntfAg/PO2sOZIkieKcjsiYG/jsp4PgusF9EGIDvKwH6hND4/RXj/PlAY8yBmCsBhr6yPAyAwFQDQkNWR1voIQbTWzB1j7H2/tW1OKGXGesTdqe3zxVaXADM5516s+nkHE1kpELI574D9zCTBnC+odnkb5EAM7Bel8BiBTA6dL73sXGsjeVBWilJ+vE8NGEriEm0d8gk2kKIBHT32AklXiqW1VgJEa+04JjGVtxEEoQGSBaCO0wBsARl0nE0AKu+bJqHEaQBvARUwQwEymVSxSab+Nu7hW+I4AbBJpi+/F5wlIE63hH3IEzUEvyFNJjGOtC1ISg18S3kKXMKRNn2k0RsDeHrDTgIZ9dIAO1ya4rAjCmW6pYBEodJ7egMq3Nspin0ok9O8U2amOKBm2ADBAnbYKpNJFb/BdJ/9jDNaez+n8xQ4JMIaYCpkO3VpA4BMEitKtD8UlNPZCltVMRklUCQZb8ljYaVd1OS0ajPUdrVNm9paoM8qA4x2zlD8q8yIY/pEWGNUxlgZ0Gv5UiaN9rjejpYyzISAPJqnytQZqKDzzs7BDHtbDLZEasDQoK337Y3sqVAnKcWiyTSBpFMD0ghQNY9oLTaVdVyAI6dVGNn3cWAxfnkzvkjXoovxKI4hU5KgccfZEHPqBXZhj6mmjBcRya53uGAJ1jXjh/EUjYOqe+2SwPXpZzmRmyWBhx60mX+ayCGtq42BzvyIQ21vYWZ49QqtUlzfIVwBucdxtXvh8VpFemCW2x3jQ+2ptNofiVlp4eLVmqApvgl2zbaEM0MVw+SvbKc2HWpQ/api1UvV9ENvKNYHNdKhPV4lZ9ajWB8pII2Rft8drgCmp6lXSGsroI7kaytZtBBy08qmVlxUNxFo4N40SnYAbAGoFzZAmACIHLWrxg+ACjKiTuL53atl6Ex7dnjvUacJoFZYmtq1z05gOnGarmnnDVOo0Qj9P78Y7AH0w/sPFA/Hp6fL7xsf/29/0NCvLj+GxM9/AQ==);lineShape=1;fontSize=16;" vertex="1" parent="1">
          <mxGeometry x="88.11121468839156" y="165.24933857907035" width="649.359150739806" height="309.50599427926" as="geometry" />
        </mxCell>
        <mxCell id="_UXNxuILy88-4kY8JOHj-43" value="" style="shape=stencil(7VnJbtswEP0aXwfchss5bf8jQJzGaBoHSbr9fYc1qIpD+qk6FshNUfTM2d5sPPib14fb5+PBmde3l/OX44/T3dvDwX84OHd6eji+nN7k6eA/HvzN/fnl+Pnl/O3p7vL38239sj59PX+vv/DzgmMmxxXlzK/Lm1DIxT9vPl0Aj6enNSBQKR2ADcUAAcH0AE/eAYAn7kXiSIwAjpLvAYVsBgBLoT8hOsr+OkBskmwPSOQMACTyPSA5cugEsVKvQ0oUCgDYZsQGyI6ivQ7wmYwCyAkJAESk2AGKpcIAIIHQe7pwezMFuEixF6lkaFbnBpHEMyD4bNZmtcaQAUfY0IyyOsIjgCFWMiVopkgp999HMsgP5HsViod0MFR6L2RhA4ikxR7L954MkN9Q6p2WmBLIGF6zU7hjgb6FWLE5Na9f87EiZ4hNxHkUFSq9Bl7iFJHTUQkdwAVKwESSsBQ5rZwAMlIUFyknQImybS5aVCAPfCzMVU42FABvJISjVd9D1pghihxZoIAQvfSsYWJgIMkkoRdoceL8e6NTixCbgQZZzu/rmsRVBiatLug1qNkJ2LQm9D6wJYoKCOzkKfapyCVoVAE4uxNgxxNAYFeA2wkweadIxg8A4LgKMBpgkFmFzYPSBlTOClCeji0hXAWwBmQQ3dMT8oZISQNQRppYSYovCO+JHwSwccIgUgQUTVH3SMIHVBgqIA4A5IdIwe0FpJ0i8aCDw0rzUEocCo2o2wsBeBTeMwDMSzORUINRAWYAYB1Uvy2AjdAIwwloyKihMeiACqgAXBl0QHyIelCqACySG9I96rcrYIhWVNSnJ3iUNWIb7dbBt2HWwQ9osqqAwUqwPsw8vUXR8YQNPgwnoCFjTtG9jPMbjBspujdroOlwmpcY6zBmPjRO7ge8Nyfvzcn/05z4gaICQI5LrYyvGQeslIc5XeYHNGPlYQSq2w0gUllmvNUMZPCQZfuiWGCJkyEu6iEOtSZ1WdOrbKkgeZJeKBmY9eqUm9T3BU/RVk/RGVRomdJVhS6Q/Rz1uspGWNyCZDCVIxnubrzRAB/J4IVY6ZkTcAYTl6l1b2pv5ipoZsbUKvxcID1FJ6YMFDB6G5YdHKKtLiI5N95d2VYFRQEPORPbkuAfd5522Zav1oWoLbRBl3KhHUq/NSuoKC1w9SF5x2cNQA2PKK2NlGCClzDV2xuGfaQPurUVbjNakia9Vc2pUePa/lzlCgkkNIiFpc1cbeiRDkIstXBPeH8eirZSxKWcbcsmC8DB4GOnT+DcavUcMDRtdbUJUioHzWf5CdSD8TKnLQAD66YAcu84sZsFpbwCigagHqxecbkBgMwadEsVMkxK4yVayLBSMbesvgYgK7FubbcB1u8USWXWLaW5jV1rs2KRVBLYctzsMhP18/PbT+Tp3del2wB5+Hs7e396fLxc7q7/r29z5dXlJth//A0=);lineShape=1;fontSize=16;" vertex="1" parent="1">
          <mxGeometry x="126.36781888665655" y="171.66849963234972" width="735.4638168718261" height="502.7077753332553" as="geometry" />
        </mxCell>
      </root>
    </mxGraphModel>
  </diagram>
</mxfile>
